<?xml version="1.0" encoding="UTF-8"?> <svg xmlns="http://www.w3.org/2000/svg" width="670.171" height="445.109" viewBox="0 0 670.171 445.109"><defs><style>.a,.b,.l{fill:#fff;}.a{opacity:0.23;}.c{fill:#3f70fc;}.d{fill:#658cfb;}.e{fill:#92afff;}.f{fill:#1953f8;}.g{fill:#0f054c;opacity:0.4;}.h{fill:#312a91;}.i{fill:#42e8e0;opacity:0.3;}.j{fill:#4094f4;}.k{fill:#1534b3;}.l{mix-blend-mode:lighten;isolation:isolate;}.m{fill:#385ec9;}.n{fill:#0033c5;}.o{fill:#799af8;}.p{fill:#1a54f8;}</style></defs><g transform="translate(-1080.553 -220.772)"><ellipse class="a" cx="150.555" cy="86.923" rx="150.555" ry="86.923" transform="translate(1232.891 419.155)"></ellipse><path class="b" d="M517.056,259.513l-3.714-.033c-6.051-15.484-19.507-30.2-40.384-42.25-58.8-33.946-154.121-33.947-212.915,0-19.713,11.38-32.806,25.134-39.3,39.667l-4.723-.042v19.273c-1.173,23.092,13.5,46.4,44.025,64.028,58.8,33.946,154.122,33.946,212.917,0,29.4-16.972,44.1-39.218,44.094-61.465h0Z" transform="translate(1016.943 175.613)"></path><ellipse class="c" cx="150.555" cy="86.923" rx="150.555" ry="86.923" transform="translate(1232.891 348.203)"></ellipse><path class="d" d="M397.591,222.916l-130-16.09,27.869,75.053,84.64-10.1Z" transform="translate(1032.977 180.287)"></path><path class="e" d="M288.862,277.084l35.566-54.816,49.074,44.72Z" transform="translate(1039.58 185.082)"></path><path class="f" d="M382.562,219.1,316,223.25l49.074,44.72Z" transform="translate(1048.008 184.1)"></path><path class="f" d="M298.223,283.472l119.5,10.033-17.377-69-17.5,37.885Z" transform="translate(1042.486 185.778)"></path><path class="g" d="M362.8,262.394,397.677,293.5l-17.377-69Z" transform="translate(1062.537 185.778)"></path><path class="h" d="M527.251,306.966l-30.223-17.449,30.222-17.449,30.223,17.449Z" transform="translate(583.525 60.417)"></path><path class="h" d="M527.251,265l-30.223-17.449,30.222-17.449,30.223,17.449Z" transform="translate(583.525 60.417)"></path><path class="i" d="M527.251,240.46l7.393,4.268,3.8-2.193-11.19-6.461-11.19,6.46,3.8,2.193Z" transform="translate(583.525 60.417)"></path><path class="h" d="M527.251,306.966l-30.223-17.449,30.222-17.449,30.223,17.449Z" transform="translate(1193.25 277.034)"></path><path class="j" d="M527.251,301.947,497.028,284.5l30.222-17.449L557.474,284.5Z" transform="translate(1193.25 277.034)"></path><path class="b" d="M527.251,270.949l-23.335-13.472,23.334-13.472,23.335,13.472Z" transform="translate(1193.605 277.756)"></path><path class="k" d="M550.585,257.478V284.5L527.251,297.97V270.949Z" transform="translate(1193.605 277.756)"></path><path class="c" d="M503.917,257.478V284.5l23.334,13.472V270.949Z" transform="translate(1193.605 277.756)"></path><path class="c" d="M557.474,284.5v5.02l-30.223,17.449v-5.02Z" transform="translate(1193.25 277.034)"></path><path class="k" d="M497.028,284.5v5.02l30.223,17.449v-5.02Z" transform="translate(1193.25 277.034)"></path><path class="h" d="M527.251,265l-30.223-17.449,30.222-17.449,30.223,17.449Z" transform="translate(1193.25 277.034)"></path><path class="c" d="M527.251,259.984l-30.223-17.449,30.222-17.449,30.223,17.45Z" transform="translate(1193.25 277.034)"></path><path class="i" d="M527.251,249l-11.19-6.461,11.19-6.46,11.19,6.461Z" transform="translate(1193.25 277.034)"></path><path class="i" d="M527.251,240.46l7.393,4.268,3.8-2.193-11.19-6.461-11.19,6.46,3.8,2.193Z" transform="translate(1193.25 277.034)"></path><path class="k" d="M527.251,240.46l7.393,4.268,3.8-2.193-11.19-6.461-11.19,6.46,3.8,2.193Z" transform="translate(1193.25 277.034)"></path><path class="k" d="M557.474,242.535v5.02L527.251,265v-5.02Z" transform="translate(1193.25 277.034)"></path><path class="k" d="M497.028,242.535v5.02L527.251,265v-5.02Z" transform="translate(1193.25 277.034)"></path><path class="l" d="M497.742,242.535l29.866-17.243-.357-.206-30.222,17.449,30.223,17.449.357-.206Z" transform="translate(1193.25 277.034)"></path><path class="h" d="M527.251,306.966l-30.223-17.449,30.222-17.449,30.223,17.449Z" transform="translate(606.973 358.915)"></path><path class="j" d="M527.251,301.947,497.028,284.5l30.222-17.449L557.474,284.5Z" transform="translate(606.973 358.915)"></path><path class="b" d="M527.251,270.949l-23.335-13.472,23.334-13.472,23.335,13.472Z" transform="translate(607.328 359.637)"></path><path class="k" d="M550.585,257.478V284.5L527.251,297.97V270.949Z" transform="translate(607.328 359.637)"></path><path class="c" d="M503.917,257.478V284.5l23.334,13.472V270.949Z" transform="translate(607.328 359.637)"></path><path class="c" d="M557.474,284.5v5.02l-30.223,17.449v-5.02Z" transform="translate(606.973 358.915)"></path><path class="k" d="M497.028,284.5v5.02l30.223,17.449v-5.02Z" transform="translate(606.973 358.915)"></path><path class="h" d="M527.251,265l-30.223-17.449,30.222-17.449,30.223,17.449Z" transform="translate(606.973 358.915)"></path><path class="c" d="M527.251,259.984l-30.223-17.449,30.222-17.449,30.223,17.45Z" transform="translate(606.973 358.915)"></path><path class="i" d="M527.251,249l-11.19-6.461,11.19-6.46,11.19,6.461Z" transform="translate(606.973 358.915)"></path><path class="i" d="M527.251,240.46l7.393,4.268,3.8-2.193-11.19-6.461-11.19,6.46,3.8,2.193Z" transform="translate(606.973 358.915)"></path><path class="k" d="M527.251,240.46l7.393,4.268,3.8-2.193-11.19-6.461-11.19,6.46,3.8,2.193Z" transform="translate(606.973 358.915)"></path><path class="k" d="M557.474,242.535v5.02L527.251,265v-5.02Z" transform="translate(606.973 358.915)"></path><path class="k" d="M497.028,242.535v5.02L527.251,265v-5.02Z" transform="translate(606.973 358.915)"></path><path class="l" d="M497.742,242.535l29.866-17.243-.357-.206-30.222,17.449,30.223,17.449.357-.206Z" transform="translate(606.973 358.915)"></path><path class="j" d="M527.251,301.947,497.028,284.5l30.222-17.449L557.474,284.5Z" transform="translate(583.525 60.417)"></path><path class="b" d="M527.251,270.949l-23.335-13.472,23.334-13.472,23.335,13.472Z" transform="translate(583.881 61.139)"></path><path class="k" d="M550.585,257.478V284.5L527.251,297.97V270.949Z" transform="translate(583.881 61.139)"></path><path class="c" d="M503.917,257.478V284.5l23.334,13.472V270.949Z" transform="translate(583.881 61.139)"></path><path class="c" d="M557.474,284.5v5.02l-30.223,17.449v-5.02Z" transform="translate(583.525 60.417)"></path><path class="k" d="M497.028,284.5v5.02l30.223,17.449v-5.02Z" transform="translate(583.525 60.417)"></path><path class="c" d="M527.251,259.984l-30.223-17.449,30.222-17.449,30.223,17.45Z" transform="translate(583.525 60.417)"></path><path class="i" d="M527.251,249l-11.19-6.461,11.19-6.46,11.19,6.461Z" transform="translate(583.525 60.417)"></path><path class="k" d="M527.251,240.46l7.393,4.268,3.8-2.193-11.19-6.461-11.19,6.46,3.8,2.193Z" transform="translate(583.525 60.417)"></path><path class="k" d="M557.474,242.535v5.02L527.251,265v-5.02Z" transform="translate(583.525 60.417)"></path><path class="k" d="M497.028,242.535v5.02L527.251,265v-5.02Z" transform="translate(583.525 60.417)"></path><path class="l" d="M497.742,242.535l29.866-17.243-.357-.206-30.222,17.449,30.223,17.449.357-.206Z" transform="translate(583.525 60.417)"></path><path class="m" d="M133.056,192.361,113.62,155.62v48.065Z" transform="translate(1607.234 269.02)"></path><path class="n" d="M76.06,192.361,95.491,155.62v48.065Z" transform="translate(1625.363 269.02)"></path><path class="m" d="M133.056,233.68,113.62,263.525V245Z" transform="translate(1607.234 231.342)"></path><path class="n" d="M76.06,233.68l19.431,29.845V245Z" transform="translate(1625.363 231.342)"></path><g transform="translate(-152.307 -39.218)"><path class="o" d="M130.352,187.249,113.62,155.62V197Z" transform="translate(1149.462 104.37)"></path><path class="p" d="M76.06,187.249,92.787,155.62V197Z" transform="translate(1170.294 104.37)"></path><path class="o" d="M130.352,233.68,113.62,259.372V243.429Z" transform="translate(1149.462 61.074)"></path><path class="p" d="M76.06,233.68l16.727,25.692V243.429Z" transform="translate(1170.294 61.074)"></path></g><g transform="translate(-131.813 255.28)"><path class="o" d="M130.352,187.249,113.62,155.62V197Z" transform="translate(1149.462 104.37)"></path><path class="p" d="M76.06,187.249,92.787,155.62V197Z" transform="translate(1170.294 104.37)"></path><path class="o" d="M130.352,233.68,113.62,259.372V243.429Z" transform="translate(1149.462 61.074)"></path><path class="p" d="M76.06,233.68l16.727,25.692V243.429Z" transform="translate(1170.294 61.074)"></path></g></g></svg> 